G04 #@! TF.FileFunction,Legend,Bot*
%FSLAX46Y46*%
G04 Gerber Fmt 4.6, Leading zero omitted, Abs format (unit mm)*
G04 Created by KiCad (PCBNEW 4.0.7-e2-6376~58~ubuntu17.04.1) date Sat May  5 23:35:11 2018*
%MOMM*%
%LPD*%
G01*
G04 APERTURE LIST*
%ADD10C,0.100000*%
%ADD11C,0.300000*%
%ADD12C,0.150000*%
G04 APERTURE END LIST*
D10*
D11*
X201262856Y-123985714D02*
X201405714Y-123914286D01*
X201691428Y-123914286D01*
X201834285Y-123985714D01*
X201977142Y-124128571D01*
X202048571Y-124271429D01*
X202048571Y-124557143D01*
X201977142Y-124700000D01*
X201834285Y-124842857D01*
X201691428Y-124914286D01*
X201405714Y-124914286D01*
X201262856Y-124842857D01*
X201548571Y-123414286D02*
X201905714Y-123485714D01*
X202262856Y-123700000D01*
X202477142Y-124057143D01*
X202548571Y-124414286D01*
X202477142Y-124771429D01*
X202262856Y-125128571D01*
X201905714Y-125342857D01*
X201548571Y-125414286D01*
X201191428Y-125342857D01*
X200834285Y-125128571D01*
X200619999Y-124771429D01*
X200548571Y-124414286D01*
X200619999Y-124057143D01*
X200834285Y-123700000D01*
X201191428Y-123485714D01*
X201548571Y-123414286D01*
X198834285Y-123771429D02*
X198762856Y-123700000D01*
X198619999Y-123628571D01*
X198262856Y-123628571D01*
X198119999Y-123700000D01*
X198048570Y-123771429D01*
X197977142Y-123914286D01*
X197977142Y-124057143D01*
X198048570Y-124271429D01*
X198905713Y-125128571D01*
X197977142Y-125128571D01*
X197048571Y-123628571D02*
X196905714Y-123628571D01*
X196762857Y-123700000D01*
X196691428Y-123771429D01*
X196619999Y-123914286D01*
X196548571Y-124200000D01*
X196548571Y-124557143D01*
X196619999Y-124842857D01*
X196691428Y-124985714D01*
X196762857Y-125057143D01*
X196905714Y-125128571D01*
X197048571Y-125128571D01*
X197191428Y-125057143D01*
X197262857Y-124985714D01*
X197334285Y-124842857D01*
X197405714Y-124557143D01*
X197405714Y-124200000D01*
X197334285Y-123914286D01*
X197262857Y-123771429D01*
X197191428Y-123700000D01*
X197048571Y-123628571D01*
X195120000Y-125128571D02*
X195977143Y-125128571D01*
X195548571Y-125128571D02*
X195548571Y-123628571D01*
X195691428Y-123842857D01*
X195834286Y-123985714D01*
X195977143Y-124057143D01*
X194262857Y-124271429D02*
X194405715Y-124200000D01*
X194477143Y-124128571D01*
X194548572Y-123985714D01*
X194548572Y-123914286D01*
X194477143Y-123771429D01*
X194405715Y-123700000D01*
X194262857Y-123628571D01*
X193977143Y-123628571D01*
X193834286Y-123700000D01*
X193762857Y-123771429D01*
X193691429Y-123914286D01*
X193691429Y-123985714D01*
X193762857Y-124128571D01*
X193834286Y-124200000D01*
X193977143Y-124271429D01*
X194262857Y-124271429D01*
X194405715Y-124342857D01*
X194477143Y-124414286D01*
X194548572Y-124557143D01*
X194548572Y-124842857D01*
X194477143Y-124985714D01*
X194405715Y-125057143D01*
X194262857Y-125128571D01*
X193977143Y-125128571D01*
X193834286Y-125057143D01*
X193762857Y-124985714D01*
X193691429Y-124842857D01*
X193691429Y-124557143D01*
X193762857Y-124414286D01*
X193834286Y-124342857D01*
X193977143Y-124271429D01*
X200227142Y-126892857D02*
X200727142Y-126892857D01*
X200727142Y-127678571D02*
X200727142Y-126178571D01*
X200012856Y-126178571D01*
X199227142Y-127678571D02*
X199370000Y-127607143D01*
X199441428Y-127535714D01*
X199512857Y-127392857D01*
X199512857Y-126964286D01*
X199441428Y-126821429D01*
X199370000Y-126750000D01*
X199227142Y-126678571D01*
X199012857Y-126678571D01*
X198870000Y-126750000D01*
X198798571Y-126821429D01*
X198727142Y-126964286D01*
X198727142Y-127392857D01*
X198798571Y-127535714D01*
X198870000Y-127607143D01*
X199012857Y-127678571D01*
X199227142Y-127678571D01*
X198227142Y-127678571D02*
X197441428Y-126678571D01*
X198227142Y-126678571D02*
X197441428Y-127678571D01*
X196298571Y-127607143D02*
X196441428Y-127678571D01*
X196727142Y-127678571D01*
X196869999Y-127607143D01*
X196941428Y-127464286D01*
X196941428Y-126892857D01*
X196869999Y-126750000D01*
X196727142Y-126678571D01*
X196441428Y-126678571D01*
X196298571Y-126750000D01*
X196227142Y-126892857D01*
X196227142Y-127035714D01*
X196941428Y-127178571D01*
X195369999Y-127678571D02*
X195512857Y-127607143D01*
X195584285Y-127464286D01*
X195584285Y-126178571D01*
X199334285Y-128728571D02*
X198834285Y-130228571D01*
X198334285Y-128728571D01*
X197977142Y-128728571D02*
X197048571Y-128728571D01*
X197548571Y-129300000D01*
X197334285Y-129300000D01*
X197191428Y-129371429D01*
X197119999Y-129442857D01*
X197048571Y-129585714D01*
X197048571Y-129942857D01*
X197119999Y-130085714D01*
X197191428Y-130157143D01*
X197334285Y-130228571D01*
X197762857Y-130228571D01*
X197905714Y-130157143D01*
X197977142Y-130085714D01*
D12*
X193045000Y-136060000D02*
X193020000Y-136060000D01*
X193045000Y-131910000D02*
X192930000Y-131910000D01*
X184145000Y-131910000D02*
X184260000Y-131910000D01*
X184145000Y-136060000D02*
X184260000Y-136060000D01*
X193045000Y-136060000D02*
X193045000Y-131910000D01*
X184145000Y-136060000D02*
X184145000Y-131910000D01*
X193020000Y-136060000D02*
X193020000Y-137435000D01*
X189356905Y-133437381D02*
X189356905Y-134246905D01*
X189309286Y-134342143D01*
X189261667Y-134389762D01*
X189166429Y-134437381D01*
X188975952Y-134437381D01*
X188880714Y-134389762D01*
X188833095Y-134342143D01*
X188785476Y-134246905D01*
X188785476Y-133437381D01*
X187785476Y-134437381D02*
X188356905Y-134437381D01*
X188071191Y-134437381D02*
X188071191Y-133437381D01*
X188166429Y-133580238D01*
X188261667Y-133675476D01*
X188356905Y-133723095D01*
M02*
