G04 #@! TF.FileFunction,Copper,L2,Bot,Signal*
%FSLAX46Y46*%
G04 Gerber Fmt 4.6, Leading zero omitted, Abs format (unit mm)*
G04 Created by KiCad (PCBNEW 4.0.7-e2-6376~58~ubuntu17.04.1) date Sat May  5 23:35:11 2018*
%MOMM*%
%LPD*%
G01*
G04 APERTURE LIST*
%ADD10C,0.100000*%
%ADD11C,5.400000*%
%ADD12C,2.200000*%
%ADD13R,1.700000X1.700000*%
%ADD14O,1.700000X1.700000*%
%ADD15R,1.727200X1.727200*%
%ADD16O,1.727200X1.727200*%
%ADD17R,1.600000X1.600000*%
%ADD18O,1.600000X1.600000*%
%ADD19R,1.800000X1.800000*%
%ADD20O,1.800000X1.800000*%
%ADD21R,0.600000X1.500000*%
%ADD22C,1.800000*%
%ADD23C,2.400000*%
%ADD24O,2.400000X2.400000*%
%ADD25C,1.600000*%
%ADD26R,1.200000X1.200000*%
%ADD27C,1.200000*%
%ADD28C,2.500000*%
%ADD29R,2.500000X2.500000*%
%ADD30C,1.400000*%
%ADD31O,1.400000X1.400000*%
%ADD32C,0.600000*%
%ADD33C,0.800000*%
%ADD34C,0.300000*%
%ADD35C,2.000000*%
%ADD36C,0.500000*%
G04 APERTURE END LIST*
D10*
D11*
X176530000Y-137795000D03*
D12*
X210915000Y-136485000D03*
X210915000Y-131485000D03*
X181515000Y-141685000D03*
X181515000Y-126285000D03*
D13*
X175895000Y-131445000D03*
D14*
X175895000Y-128905000D03*
X175895000Y-126365000D03*
X175895000Y-123825000D03*
X175895000Y-121285000D03*
X175895000Y-118745000D03*
X175895000Y-116205000D03*
X175895000Y-113665000D03*
X175895000Y-111125000D03*
D11*
X176530000Y-99695000D03*
X220980000Y-137795000D03*
D15*
X182880000Y-121920000D03*
D16*
X182880000Y-119380000D03*
X185420000Y-121920000D03*
X185420000Y-119380000D03*
X187960000Y-121920000D03*
X187960000Y-119380000D03*
X190500000Y-121920000D03*
X190500000Y-119380000D03*
D17*
X193040000Y-110490000D03*
D18*
X200660000Y-115570000D03*
X193040000Y-113030000D03*
X200660000Y-113030000D03*
X193040000Y-115570000D03*
X200660000Y-110490000D03*
D19*
X210820000Y-115570000D03*
D20*
X208280000Y-115570000D03*
X205740000Y-115570000D03*
D21*
X192405000Y-136685000D03*
X191135000Y-136685000D03*
X189865000Y-136685000D03*
X188595000Y-136685000D03*
X187325000Y-136685000D03*
X186055000Y-136685000D03*
X184785000Y-136685000D03*
X184785000Y-131285000D03*
X186055000Y-131285000D03*
X187325000Y-131285000D03*
X188595000Y-131285000D03*
X189865000Y-131285000D03*
X191135000Y-131285000D03*
X192405000Y-131285000D03*
D19*
X187960000Y-100330000D03*
D22*
X190500000Y-100330000D03*
D19*
X187960000Y-107950000D03*
D22*
X190500000Y-107950000D03*
D17*
X193040000Y-100330000D03*
D18*
X200660000Y-105410000D03*
X193040000Y-102870000D03*
X200660000Y-102870000D03*
X193040000Y-105410000D03*
X200660000Y-100330000D03*
D19*
X210820000Y-100330000D03*
D20*
X208280000Y-100330000D03*
X205740000Y-100330000D03*
D13*
X193040000Y-95885000D03*
D14*
X190500000Y-95885000D03*
X187960000Y-95885000D03*
X185420000Y-95885000D03*
D23*
X205740000Y-95250000D03*
D24*
X200660000Y-95250000D03*
D23*
X208280000Y-110490000D03*
D24*
X203200000Y-110490000D03*
D23*
X211455000Y-105410000D03*
D24*
X203835000Y-105410000D03*
D23*
X211455000Y-120650000D03*
D24*
X203835000Y-120650000D03*
D13*
X180340000Y-115570000D03*
D14*
X182880000Y-115570000D03*
X185420000Y-115570000D03*
X187960000Y-115570000D03*
D11*
X220980000Y-99695000D03*
D25*
X209550000Y-95250000D03*
D18*
X217170000Y-95250000D03*
D26*
X180340000Y-95885000D03*
D27*
X182340000Y-95885000D03*
D28*
X219710000Y-106205000D03*
D29*
X219710000Y-116205000D03*
D28*
X219710000Y-111205000D03*
X219710000Y-121445000D03*
D29*
X219710000Y-131445000D03*
D28*
X219710000Y-126445000D03*
D30*
X184785000Y-100330000D03*
D31*
X182245000Y-100330000D03*
D30*
X184785000Y-106045000D03*
D31*
X182245000Y-106045000D03*
D30*
X184785000Y-102870000D03*
D31*
X182245000Y-102870000D03*
D30*
X184785000Y-108585000D03*
D31*
X182245000Y-108585000D03*
D30*
X184785000Y-111760000D03*
D31*
X182245000Y-111760000D03*
D32*
X191135000Y-134620000D03*
X189865000Y-134620000D03*
X186055000Y-126365000D03*
X186055000Y-132715000D03*
X184785000Y-126365000D03*
X184785000Y-132715000D03*
X183515000Y-136525000D03*
X188595000Y-126365000D03*
X188595000Y-134620000D03*
X179070000Y-133350000D03*
X179705000Y-132715000D03*
X192405000Y-134620000D03*
D33*
X182245000Y-108585000D02*
X180975000Y-108585000D01*
X180975000Y-108585000D02*
X179705000Y-109855000D01*
X182245000Y-106045000D02*
X182245000Y-108585000D01*
X182245000Y-102870000D02*
X182245000Y-106045000D01*
X182245000Y-100330000D02*
X182245000Y-102870000D01*
X180975000Y-119380000D02*
X180340000Y-119380000D01*
X177800000Y-116840000D02*
X177800000Y-116205000D01*
X180340000Y-119380000D02*
X177800000Y-116840000D01*
X177800000Y-111760000D02*
X177800000Y-116205000D01*
X178435000Y-111125000D02*
X177800000Y-111760000D01*
X179705000Y-109855000D02*
X178435000Y-111125000D01*
X182880000Y-119380000D02*
X180975000Y-119380000D01*
X182245000Y-98425000D02*
X182245000Y-100330000D01*
X181515000Y-137795000D02*
X181515000Y-137700000D01*
X181515000Y-137700000D02*
X175895000Y-132080000D01*
X175895000Y-132080000D02*
X175895000Y-131445000D01*
X181515000Y-137795000D02*
X181515000Y-141685000D01*
X182340000Y-95885000D02*
X185420000Y-95885000D01*
X192405000Y-131285000D02*
X194945000Y-131285000D01*
X194945000Y-131285000D02*
X194945000Y-131445000D01*
X185420000Y-97790000D02*
X185420000Y-95885000D01*
X194945000Y-130810000D02*
X194945000Y-99060000D01*
X182880000Y-97790000D02*
X182245000Y-98425000D01*
X193675000Y-97790000D02*
X185420000Y-97790000D01*
X185420000Y-97790000D02*
X182880000Y-97790000D01*
X194945000Y-99060000D02*
X193675000Y-97790000D01*
X194945000Y-130810000D02*
X194945000Y-131445000D01*
X193595000Y-141685000D02*
X194945000Y-140335000D01*
X194945000Y-140335000D02*
X194945000Y-132080000D01*
X193595000Y-141685000D02*
X181515000Y-141685000D01*
X194945000Y-131445000D02*
X194945000Y-132080000D01*
D34*
X187325000Y-131285000D02*
X187325000Y-133350000D01*
X182245000Y-133985000D02*
X181610000Y-133350000D01*
X186690000Y-133985000D02*
X182245000Y-133985000D01*
X187325000Y-133350000D02*
X186690000Y-133985000D01*
X177800000Y-127635000D02*
X177800000Y-127000000D01*
X177165000Y-126365000D02*
X175895000Y-126365000D01*
X177800000Y-127000000D02*
X177165000Y-126365000D01*
X177800000Y-129540000D02*
X177800000Y-127635000D01*
X181610000Y-133350000D02*
X177800000Y-129540000D01*
X184785000Y-100330000D02*
X187960000Y-100330000D01*
X191135000Y-136685000D02*
X191135000Y-134620000D01*
X191135000Y-136050000D02*
X191135000Y-134620000D01*
X190500000Y-100330000D02*
X193040000Y-100330000D01*
X187960000Y-107950000D02*
X187325000Y-107950000D01*
X187325000Y-107950000D02*
X185420000Y-106045000D01*
X185420000Y-106045000D02*
X184785000Y-106045000D01*
X189865000Y-136685000D02*
X189865000Y-134620000D01*
X189865000Y-136050000D02*
X189865000Y-134620000D01*
X190500000Y-107950000D02*
X191770000Y-107950000D01*
X193040000Y-109220000D02*
X193040000Y-110490000D01*
X191770000Y-107950000D02*
X193040000Y-109220000D01*
D35*
X210915000Y-136485000D02*
X208240000Y-136485000D01*
X208280000Y-125730000D02*
X208280000Y-115570000D01*
X207010000Y-127000000D02*
X208280000Y-125730000D01*
X207010000Y-135255000D02*
X207010000Y-127000000D01*
X208240000Y-136485000D02*
X207010000Y-135255000D01*
X208280000Y-100330000D02*
X208280000Y-95250000D01*
X205740000Y-95250000D02*
X208280000Y-95250000D01*
X208280000Y-95250000D02*
X209550000Y-95250000D01*
X210955000Y-136525000D02*
X210915000Y-136485000D01*
X208280000Y-100330000D02*
X208280000Y-110490000D01*
X208280000Y-115570000D02*
X208280000Y-110490000D01*
X217170000Y-111125000D02*
X211455000Y-105410000D01*
X211455000Y-105410000D02*
X211455000Y-101004998D01*
X211455000Y-101004998D02*
X210780002Y-100330000D01*
X210780002Y-100330000D02*
X210820000Y-100330000D01*
X219710000Y-111125000D02*
X217170000Y-111125000D01*
X203835000Y-105410000D02*
X204470000Y-105410000D01*
X204470000Y-105410000D02*
X205105000Y-104775000D01*
X205105000Y-101004998D02*
X205779998Y-100330000D01*
X205105000Y-104775000D02*
X205105000Y-101004998D01*
X205779998Y-100330000D02*
X205740000Y-100330000D01*
X200660000Y-105410000D02*
X203835000Y-105410000D01*
X205779998Y-100330000D02*
X205740000Y-100330000D01*
X219710000Y-116205000D02*
X211455000Y-116205000D01*
X211455000Y-116205000D02*
X210820000Y-115570000D01*
X211455000Y-116205000D02*
X210820000Y-115570000D01*
X211455000Y-120650000D02*
X211455000Y-118110000D01*
X211455000Y-118110000D02*
X211455000Y-116205000D01*
X211455000Y-116205000D02*
X210820000Y-115570000D01*
X203835000Y-120650000D02*
X203835000Y-115570000D01*
X200660000Y-115570000D02*
X203835000Y-115570000D01*
X203835000Y-115570000D02*
X205779998Y-115570000D01*
X205779998Y-115570000D02*
X205740000Y-115570000D01*
X205779998Y-115570000D02*
X205740000Y-115570000D01*
X205779998Y-115570000D02*
X205740000Y-115570000D01*
D34*
X184785000Y-102870000D02*
X193040000Y-102870000D01*
X191135000Y-113030000D02*
X189865000Y-113030000D01*
X189865000Y-113030000D02*
X187960000Y-111125000D01*
X184785000Y-108585000D02*
X185420000Y-108585000D01*
X185420000Y-108585000D02*
X187960000Y-111125000D01*
X191135000Y-113030000D02*
X193040000Y-113030000D01*
D35*
X200660000Y-95250000D02*
X200660000Y-100330000D01*
X200660000Y-110490000D02*
X203200000Y-110490000D01*
X219710000Y-106205000D02*
X219235000Y-106205000D01*
X219235000Y-106205000D02*
X215900000Y-102870000D01*
X215900000Y-102870000D02*
X215900000Y-96520000D01*
X215900000Y-96520000D02*
X217170000Y-95250000D01*
D34*
X180340000Y-116840000D02*
X180340000Y-115570000D01*
X180340000Y-116840000D02*
X180975000Y-117475000D01*
X180975000Y-117475000D02*
X181610000Y-117475000D01*
X191135000Y-117475000D02*
X181610000Y-117475000D01*
X191135000Y-124460000D02*
X191770000Y-124460000D01*
X193040000Y-123190000D02*
X193040000Y-122555000D01*
X191770000Y-124460000D02*
X193040000Y-123190000D01*
X192405000Y-118745000D02*
X193040000Y-119380000D01*
X193040000Y-119380000D02*
X193040000Y-122555000D01*
X191135000Y-117475000D02*
X192405000Y-118745000D01*
X191135000Y-124460000D02*
X187960000Y-124460000D01*
X187960000Y-124460000D02*
X186055000Y-126365000D01*
X186055000Y-131285000D02*
X186055000Y-132715000D01*
X190500000Y-119380000D02*
X191770000Y-119380000D01*
X190500000Y-123825000D02*
X191135000Y-123825000D01*
X192405000Y-122555000D02*
X192405000Y-121920000D01*
X191135000Y-123825000D02*
X192405000Y-122555000D01*
X191770000Y-119380000D02*
X192405000Y-120015000D01*
X192405000Y-120015000D02*
X192405000Y-121920000D01*
X184785000Y-126365000D02*
X186055000Y-125095000D01*
X184785000Y-131285000D02*
X184785000Y-132715000D01*
X187325000Y-123825000D02*
X190500000Y-123825000D01*
X186055000Y-125095000D02*
X187325000Y-123825000D01*
X183675000Y-136685000D02*
X184785000Y-136685000D01*
X183675000Y-136685000D02*
X183515000Y-136525000D01*
X187960000Y-115570000D02*
X187960000Y-113030000D01*
X186690000Y-111760000D02*
X184785000Y-111760000D01*
X187960000Y-113030000D02*
X186690000Y-111760000D01*
X191135000Y-116205000D02*
X190500000Y-115570000D01*
X190500000Y-115570000D02*
X187960000Y-115570000D01*
X193675000Y-123190000D02*
X193675000Y-123825000D01*
X192405000Y-125095000D02*
X191770000Y-125095000D01*
X193675000Y-123825000D02*
X192405000Y-125095000D01*
X193040000Y-118110000D02*
X193675000Y-118745000D01*
X193675000Y-118745000D02*
X193675000Y-123190000D01*
X188595000Y-136685000D02*
X188595000Y-134620000D01*
X189865000Y-125095000D02*
X191770000Y-125095000D01*
X188595000Y-126365000D02*
X189865000Y-125095000D01*
X193040000Y-118110000D02*
X191135000Y-116205000D01*
X188595000Y-131285000D02*
X188595000Y-130175000D01*
X187960000Y-129540000D02*
X183515000Y-129540000D01*
X188595000Y-130175000D02*
X187960000Y-129540000D01*
X178435000Y-128270000D02*
X178435000Y-128905000D01*
X179070000Y-129540000D02*
X179705000Y-129540000D01*
X178435000Y-128905000D02*
X179070000Y-129540000D01*
X178435000Y-125095000D02*
X177165000Y-123825000D01*
X178435000Y-128270000D02*
X178435000Y-125095000D01*
X179705000Y-129540000D02*
X183515000Y-129540000D01*
X177165000Y-123825000D02*
X176530000Y-123825000D01*
X176530000Y-123825000D02*
X175895000Y-123825000D01*
X176530000Y-123825000D02*
X175895000Y-123825000D01*
X186055000Y-136685000D02*
X186055000Y-135890000D01*
X180975000Y-135255000D02*
X180340000Y-134620000D01*
X185420000Y-135255000D02*
X180975000Y-135255000D01*
X186055000Y-135890000D02*
X185420000Y-135255000D01*
X180340000Y-134620000D02*
X179070000Y-133350000D01*
X187325000Y-136685000D02*
X187325000Y-135255000D01*
X187325000Y-135255000D02*
X186690000Y-134620000D01*
X186690000Y-134620000D02*
X181610000Y-134620000D01*
X181610000Y-134620000D02*
X180975000Y-133985000D01*
X180975000Y-133985000D02*
X179705000Y-132715000D01*
X187325000Y-136050000D02*
X187325000Y-135255000D01*
X189865000Y-131285000D02*
X189865000Y-129540000D01*
X189230000Y-128905000D02*
X182880000Y-128905000D01*
X189865000Y-129540000D02*
X189230000Y-128905000D01*
X175895000Y-121285000D02*
X177800000Y-121285000D01*
X179070000Y-122555000D02*
X179070000Y-123825000D01*
X177800000Y-121285000D02*
X179070000Y-122555000D01*
X179070000Y-127635000D02*
X179070000Y-128270000D01*
X180340000Y-128905000D02*
X182880000Y-128905000D01*
X179070000Y-127635000D02*
X179070000Y-123825000D01*
X179070000Y-128270000D02*
X179705000Y-128905000D01*
X179705000Y-128905000D02*
X180340000Y-128905000D01*
X191135000Y-131285000D02*
X191135000Y-128905000D01*
X190500000Y-128270000D02*
X182245000Y-128270000D01*
X191135000Y-128905000D02*
X190500000Y-128270000D01*
X177165000Y-118745000D02*
X178435000Y-118745000D01*
X179705000Y-120015000D02*
X179705000Y-123190000D01*
X178435000Y-118745000D02*
X179705000Y-120015000D01*
X177165000Y-118745000D02*
X176530000Y-118745000D01*
X176530000Y-118745000D02*
X175895000Y-118745000D01*
X179705000Y-127000000D02*
X179705000Y-127635000D01*
X179705000Y-123190000D02*
X179705000Y-127000000D01*
X180975000Y-128270000D02*
X182245000Y-128270000D01*
X179705000Y-127635000D02*
X180340000Y-128270000D01*
X180340000Y-128270000D02*
X180975000Y-128270000D01*
X176530000Y-118745000D02*
X175895000Y-118745000D01*
D33*
X190500000Y-121920000D02*
X187960000Y-121920000D01*
X187960000Y-121920000D02*
X185420000Y-121920000D01*
X181515000Y-126285000D02*
X182325000Y-126285000D01*
X182325000Y-126285000D02*
X185420000Y-123190000D01*
X185420000Y-123190000D02*
X185420000Y-121920000D01*
X192405000Y-136685000D02*
X192405000Y-134620000D01*
D35*
X210915000Y-131485000D02*
X219670000Y-131485000D01*
X219670000Y-131485000D02*
X219710000Y-131445000D01*
X219670000Y-131485000D02*
X219710000Y-131445000D01*
X219710000Y-126445000D02*
X219710000Y-121445000D01*
X219710000Y-131445000D02*
X219710000Y-126445000D01*
X210915000Y-131485000D02*
X210915000Y-131350000D01*
X210955000Y-131525000D02*
X210915000Y-131485000D01*
D36*
G36*
X195330000Y-121920000D02*
X195349696Y-122017264D01*
X195432957Y-122122184D01*
X202315000Y-127127306D01*
X202315000Y-143320000D01*
X182449381Y-143320000D01*
X182508230Y-143298148D01*
X182625262Y-143219950D01*
X182717714Y-142893371D01*
X181515000Y-141690657D01*
X180312286Y-142893371D01*
X180404738Y-143219950D01*
X180622974Y-143320000D01*
X178776726Y-143320000D01*
X177442026Y-141985300D01*
X179644553Y-141985300D01*
X179901852Y-142678230D01*
X179980050Y-142795262D01*
X180306629Y-142887714D01*
X181509343Y-141685000D01*
X181520657Y-141685000D01*
X182723371Y-142887714D01*
X183049950Y-142795262D01*
X183357988Y-142123348D01*
X183385447Y-141384700D01*
X183128148Y-140691770D01*
X183049950Y-140574738D01*
X182723371Y-140482286D01*
X181520657Y-141685000D01*
X181509343Y-141685000D01*
X180306629Y-140482286D01*
X179980050Y-140574738D01*
X179672012Y-141246652D01*
X179644553Y-141985300D01*
X177442026Y-141985300D01*
X176701877Y-141245151D01*
X177213237Y-141245597D01*
X178481715Y-140721473D01*
X178726986Y-140476629D01*
X180312286Y-140476629D01*
X181515000Y-141679343D01*
X182717714Y-140476629D01*
X182625262Y-140150050D01*
X181953348Y-139842012D01*
X181214700Y-139814553D01*
X180521770Y-140071852D01*
X180404738Y-140150050D01*
X180312286Y-140476629D01*
X178726986Y-140476629D01*
X179453062Y-139751819D01*
X179979399Y-138484258D01*
X179980597Y-137111763D01*
X179456473Y-135843285D01*
X178486819Y-134871938D01*
X177219258Y-134345601D01*
X175846763Y-134344403D01*
X174578285Y-134868527D01*
X174180000Y-135266118D01*
X174180000Y-131638500D01*
X174287000Y-131638500D01*
X174287000Y-132445775D01*
X174402398Y-132724372D01*
X174615627Y-132937601D01*
X174894224Y-133053000D01*
X175701500Y-133053000D01*
X175891000Y-132863500D01*
X175891000Y-131449000D01*
X175899000Y-131449000D01*
X175899000Y-132863500D01*
X176088500Y-133053000D01*
X176895776Y-133053000D01*
X177174373Y-132937601D01*
X177387602Y-132724372D01*
X177503000Y-132445775D01*
X177503000Y-131638500D01*
X177313500Y-131449000D01*
X175899000Y-131449000D01*
X175891000Y-131449000D01*
X174476500Y-131449000D01*
X174287000Y-131638500D01*
X174180000Y-131638500D01*
X174180000Y-111125000D01*
X174263654Y-111125000D01*
X174385447Y-111737293D01*
X174732283Y-112256371D01*
X174939756Y-112395000D01*
X174732283Y-112533629D01*
X174385447Y-113052707D01*
X174263654Y-113665000D01*
X174385447Y-114277293D01*
X174732283Y-114796371D01*
X174939756Y-114935000D01*
X174732283Y-115073629D01*
X174385447Y-115592707D01*
X174263654Y-116205000D01*
X174385447Y-116817293D01*
X174732283Y-117336371D01*
X174939756Y-117475000D01*
X174732283Y-117613629D01*
X174385447Y-118132707D01*
X174263654Y-118745000D01*
X174385447Y-119357293D01*
X174732283Y-119876371D01*
X174939756Y-120015000D01*
X174732283Y-120153629D01*
X174385447Y-120672707D01*
X174263654Y-121285000D01*
X174385447Y-121897293D01*
X174732283Y-122416371D01*
X174939756Y-122555000D01*
X174732283Y-122693629D01*
X174385447Y-123212707D01*
X174263654Y-123825000D01*
X174385447Y-124437293D01*
X174732283Y-124956371D01*
X174939756Y-125095000D01*
X174732283Y-125233629D01*
X174385447Y-125752707D01*
X174263654Y-126365000D01*
X174385447Y-126977293D01*
X174732283Y-127496371D01*
X174939756Y-127635000D01*
X174732283Y-127773629D01*
X174385447Y-128292707D01*
X174263654Y-128905000D01*
X174385447Y-129517293D01*
X174663050Y-129932756D01*
X174615627Y-129952399D01*
X174402398Y-130165628D01*
X174287000Y-130444225D01*
X174287000Y-131251500D01*
X174476500Y-131441000D01*
X175891000Y-131441000D01*
X175891000Y-131421000D01*
X175899000Y-131421000D01*
X175899000Y-131441000D01*
X177313500Y-131441000D01*
X177503000Y-131251500D01*
X177503000Y-130515792D01*
X178961140Y-131973932D01*
X178815372Y-132119446D01*
X178715294Y-132360460D01*
X178476000Y-132459334D01*
X178180372Y-132754446D01*
X178020182Y-133140226D01*
X178019818Y-133557942D01*
X178179334Y-133944000D01*
X178474446Y-134239628D01*
X178837653Y-134390445D01*
X180338604Y-135891396D01*
X180630585Y-136086492D01*
X180975000Y-136155000D01*
X182531714Y-136155000D01*
X182465182Y-136315226D01*
X182464818Y-136732942D01*
X182624334Y-137119000D01*
X182919446Y-137414628D01*
X183305226Y-137574818D01*
X183625213Y-137575097D01*
X183675000Y-137585000D01*
X183748532Y-137585000D01*
X183772604Y-137712933D01*
X183936862Y-137968198D01*
X184187492Y-138139446D01*
X184485000Y-138199693D01*
X185085000Y-138199693D01*
X185362933Y-138147396D01*
X185417623Y-138112204D01*
X185457492Y-138139446D01*
X185755000Y-138199693D01*
X186355000Y-138199693D01*
X186632933Y-138147396D01*
X186687623Y-138112204D01*
X186727492Y-138139446D01*
X187025000Y-138199693D01*
X187625000Y-138199693D01*
X187902933Y-138147396D01*
X187957623Y-138112204D01*
X187997492Y-138139446D01*
X188295000Y-138199693D01*
X188895000Y-138199693D01*
X189172933Y-138147396D01*
X189227623Y-138112204D01*
X189267492Y-138139446D01*
X189565000Y-138199693D01*
X190165000Y-138199693D01*
X190442933Y-138147396D01*
X190497623Y-138112204D01*
X190537492Y-138139446D01*
X190835000Y-138199693D01*
X191435000Y-138199693D01*
X191712933Y-138147396D01*
X191767623Y-138112204D01*
X191807492Y-138139446D01*
X192105000Y-138199693D01*
X192705000Y-138199693D01*
X192982933Y-138147396D01*
X193238198Y-137983138D01*
X193409446Y-137732508D01*
X193469693Y-137435000D01*
X193469693Y-137113865D01*
X193555000Y-136685000D01*
X193555000Y-134620000D01*
X193467461Y-134179914D01*
X193218173Y-133806827D01*
X192845086Y-133557539D01*
X192405000Y-133470000D01*
X191964914Y-133557539D01*
X191715565Y-133724148D01*
X191344774Y-133570182D01*
X190927058Y-133569818D01*
X190541000Y-133729334D01*
X190500188Y-133770075D01*
X190460554Y-133730372D01*
X190074774Y-133570182D01*
X189657058Y-133569818D01*
X189271000Y-133729334D01*
X189230188Y-133770075D01*
X189190554Y-133730372D01*
X188804774Y-133570182D01*
X188387058Y-133569818D01*
X188162848Y-133662460D01*
X188225000Y-133350000D01*
X188225000Y-132785518D01*
X188295000Y-132799693D01*
X188895000Y-132799693D01*
X189172933Y-132747396D01*
X189227623Y-132712204D01*
X189267492Y-132739446D01*
X189565000Y-132799693D01*
X190165000Y-132799693D01*
X190442933Y-132747396D01*
X190497623Y-132712204D01*
X190537492Y-132739446D01*
X190835000Y-132799693D01*
X191435000Y-132799693D01*
X191712933Y-132747396D01*
X191764311Y-132714335D01*
X191954225Y-132793000D01*
X192211500Y-132793000D01*
X192401000Y-132603500D01*
X192401000Y-131289000D01*
X192409000Y-131289000D01*
X192409000Y-132603500D01*
X192598500Y-132793000D01*
X192855775Y-132793000D01*
X193134372Y-132677602D01*
X193347601Y-132464373D01*
X193463000Y-132185776D01*
X193463000Y-131478500D01*
X193273500Y-131289000D01*
X192409000Y-131289000D01*
X192401000Y-131289000D01*
X192381000Y-131289000D01*
X192381000Y-131281000D01*
X192401000Y-131281000D01*
X192401000Y-129966500D01*
X192409000Y-129966500D01*
X192409000Y-131281000D01*
X193273500Y-131281000D01*
X193463000Y-131091500D01*
X193463000Y-130384224D01*
X193347601Y-130105627D01*
X193134372Y-129892398D01*
X192855775Y-129777000D01*
X192598500Y-129777000D01*
X192409000Y-129966500D01*
X192401000Y-129966500D01*
X192211500Y-129777000D01*
X192035000Y-129777000D01*
X192035000Y-128905000D01*
X191966492Y-128560585D01*
X191771396Y-128268604D01*
X191136396Y-127633604D01*
X190844415Y-127438508D01*
X190500000Y-127370000D01*
X188912291Y-127370000D01*
X189189000Y-127255666D01*
X189484628Y-126960554D01*
X189635445Y-126597347D01*
X190237792Y-125995000D01*
X192405000Y-125995000D01*
X192749415Y-125926492D01*
X193041396Y-125731396D01*
X194311396Y-124461396D01*
X194506492Y-124169416D01*
X194575000Y-123825000D01*
X194575000Y-118745000D01*
X194506492Y-118400585D01*
X194311396Y-118108604D01*
X193280912Y-117078120D01*
X193663525Y-117002013D01*
X194166382Y-116666016D01*
X194502379Y-116163159D01*
X194620366Y-115570000D01*
X194502379Y-114976841D01*
X194166382Y-114473984D01*
X193905996Y-114300000D01*
X194166382Y-114126016D01*
X194502379Y-113623159D01*
X194620366Y-113030000D01*
X194502379Y-112436841D01*
X194183781Y-111960024D01*
X194373198Y-111838138D01*
X194544446Y-111587508D01*
X194604693Y-111290000D01*
X194604693Y-109690000D01*
X194552396Y-109412067D01*
X194388138Y-109156802D01*
X194137508Y-108985554D01*
X193883119Y-108934039D01*
X193871492Y-108875584D01*
X193676396Y-108583604D01*
X192406396Y-107313604D01*
X192114415Y-107118508D01*
X191926273Y-107081085D01*
X191899617Y-107016571D01*
X191435870Y-106552014D01*
X190829645Y-106300287D01*
X190173235Y-106299715D01*
X189566571Y-106550383D01*
X189483261Y-106633547D01*
X189408138Y-106516802D01*
X189157508Y-106345554D01*
X188860000Y-106285307D01*
X187060000Y-106285307D01*
X186953196Y-106305404D01*
X186115278Y-105467486D01*
X186014967Y-105224714D01*
X185607431Y-104816467D01*
X185074688Y-104595252D01*
X184497843Y-104594749D01*
X183964714Y-104815033D01*
X183556467Y-105222569D01*
X183501649Y-105354584D01*
X183426893Y-105191248D01*
X183010210Y-104803945D01*
X182477031Y-104605581D01*
X182249000Y-104776505D01*
X182249000Y-106041000D01*
X182269000Y-106041000D01*
X182269000Y-106049000D01*
X182249000Y-106049000D01*
X182249000Y-107313495D01*
X182251008Y-107315000D01*
X182249000Y-107316505D01*
X182249000Y-108581000D01*
X182269000Y-108581000D01*
X182269000Y-108589000D01*
X182249000Y-108589000D01*
X182249000Y-109853495D01*
X182477031Y-110024419D01*
X183010210Y-109826055D01*
X183426893Y-109438752D01*
X183501503Y-109275734D01*
X183555033Y-109405286D01*
X183962569Y-109813533D01*
X184495312Y-110034748D01*
X185072157Y-110035251D01*
X185443870Y-109881662D01*
X186422208Y-110860000D01*
X185935392Y-110860000D01*
X185607431Y-110531467D01*
X185074688Y-110310252D01*
X184497843Y-110309749D01*
X183964714Y-110530033D01*
X183556467Y-110937569D01*
X183509632Y-111050360D01*
X183298712Y-110734695D01*
X182828298Y-110420375D01*
X182273407Y-110310000D01*
X182216593Y-110310000D01*
X181661702Y-110420375D01*
X181191288Y-110734695D01*
X180876968Y-111205109D01*
X180766593Y-111760000D01*
X180876968Y-112314891D01*
X181191288Y-112785305D01*
X181661702Y-113099625D01*
X182216593Y-113210000D01*
X182273407Y-113210000D01*
X182828298Y-113099625D01*
X183298712Y-112785305D01*
X183509436Y-112469933D01*
X183555033Y-112580286D01*
X183962569Y-112988533D01*
X184495312Y-113209748D01*
X185072157Y-113210251D01*
X185605286Y-112989967D01*
X185935829Y-112660000D01*
X186317208Y-112660000D01*
X187060000Y-113402792D01*
X187060000Y-114252686D01*
X186828629Y-114407283D01*
X186690000Y-114614756D01*
X186551371Y-114407283D01*
X186032293Y-114060447D01*
X185420000Y-113938654D01*
X184807707Y-114060447D01*
X184288629Y-114407283D01*
X184150000Y-114614756D01*
X184011371Y-114407283D01*
X183492293Y-114060447D01*
X182880000Y-113938654D01*
X182267707Y-114060447D01*
X181840509Y-114345891D01*
X181738138Y-114186802D01*
X181487508Y-114015554D01*
X181190000Y-113955307D01*
X179490000Y-113955307D01*
X179212067Y-114007604D01*
X178956802Y-114171862D01*
X178785554Y-114422492D01*
X178725307Y-114720000D01*
X178725307Y-116420000D01*
X178777604Y-116697933D01*
X178941862Y-116953198D01*
X179192492Y-117124446D01*
X179490000Y-117184693D01*
X179508694Y-117184693D01*
X179703604Y-117476396D01*
X180338604Y-118111396D01*
X180630585Y-118306492D01*
X180975000Y-118375000D01*
X181642802Y-118375000D01*
X181499453Y-118529308D01*
X181278995Y-119122376D01*
X181447905Y-119376000D01*
X182876000Y-119376000D01*
X182876000Y-119356000D01*
X182884000Y-119356000D01*
X182884000Y-119376000D01*
X182904000Y-119376000D01*
X182904000Y-119384000D01*
X182884000Y-119384000D01*
X182884000Y-119404000D01*
X182876000Y-119404000D01*
X182876000Y-119384000D01*
X181447905Y-119384000D01*
X181278995Y-119637624D01*
X181499453Y-120230692D01*
X181654757Y-120397870D01*
X181483202Y-120508262D01*
X181311954Y-120758892D01*
X181251707Y-121056400D01*
X181251707Y-122783600D01*
X181304004Y-123061533D01*
X181468262Y-123316798D01*
X181718892Y-123488046D01*
X182016400Y-123548293D01*
X183435361Y-123548293D01*
X182353591Y-124630063D01*
X181884602Y-124435321D01*
X181148627Y-124434679D01*
X180605000Y-124659301D01*
X180605000Y-120015000D01*
X180562166Y-119799658D01*
X180536492Y-119670584D01*
X180341396Y-119378604D01*
X179071396Y-118108604D01*
X178779415Y-117913508D01*
X178435000Y-117845000D01*
X177212314Y-117845000D01*
X177057717Y-117613629D01*
X176850244Y-117475000D01*
X177057717Y-117336371D01*
X177404553Y-116817293D01*
X177526346Y-116205000D01*
X177404553Y-115592707D01*
X177057717Y-115073629D01*
X176850244Y-114935000D01*
X177057717Y-114796371D01*
X177404553Y-114277293D01*
X177526346Y-113665000D01*
X177404553Y-113052707D01*
X177057717Y-112533629D01*
X176850244Y-112395000D01*
X177057717Y-112256371D01*
X177404553Y-111737293D01*
X177526346Y-111125000D01*
X177404553Y-110512707D01*
X177057717Y-109993629D01*
X176538639Y-109646793D01*
X175926346Y-109525000D01*
X175863654Y-109525000D01*
X175251361Y-109646793D01*
X174732283Y-109993629D01*
X174385447Y-110512707D01*
X174263654Y-111125000D01*
X174180000Y-111125000D01*
X174180000Y-108817031D01*
X180805581Y-108817031D01*
X180826357Y-108921473D01*
X181063107Y-109438752D01*
X181479790Y-109826055D01*
X182012969Y-110024419D01*
X182241000Y-109853495D01*
X182241000Y-108589000D01*
X180976506Y-108589000D01*
X180805581Y-108817031D01*
X174180000Y-108817031D01*
X174180000Y-106277031D01*
X180805581Y-106277031D01*
X180826357Y-106381473D01*
X181063107Y-106898752D01*
X181479790Y-107286055D01*
X181557591Y-107315000D01*
X181479790Y-107343945D01*
X181063107Y-107731248D01*
X180826357Y-108248527D01*
X180805581Y-108352969D01*
X180976506Y-108581000D01*
X182241000Y-108581000D01*
X182241000Y-107316505D01*
X182238992Y-107315000D01*
X182241000Y-107313495D01*
X182241000Y-106049000D01*
X180976506Y-106049000D01*
X180805581Y-106277031D01*
X174180000Y-106277031D01*
X174180000Y-105812969D01*
X180805581Y-105812969D01*
X180976506Y-106041000D01*
X182241000Y-106041000D01*
X182241000Y-104776505D01*
X182012969Y-104605581D01*
X181479790Y-104803945D01*
X181063107Y-105191248D01*
X180826357Y-105708527D01*
X180805581Y-105812969D01*
X174180000Y-105812969D01*
X174180000Y-102224195D01*
X174573181Y-102618062D01*
X175840742Y-103144399D01*
X177213237Y-103145597D01*
X177318674Y-103102031D01*
X180805581Y-103102031D01*
X180826357Y-103206473D01*
X181063107Y-103723752D01*
X181479790Y-104111055D01*
X182012969Y-104309419D01*
X182241000Y-104138495D01*
X182241000Y-102874000D01*
X180976506Y-102874000D01*
X180805581Y-103102031D01*
X177318674Y-103102031D01*
X178481715Y-102621473D01*
X179453062Y-101651819D01*
X179905581Y-100562031D01*
X180805581Y-100562031D01*
X180826357Y-100666473D01*
X181063107Y-101183752D01*
X181479790Y-101571055D01*
X181557591Y-101600000D01*
X181479790Y-101628945D01*
X181063107Y-102016248D01*
X180826357Y-102533527D01*
X180805581Y-102637969D01*
X180976506Y-102866000D01*
X182241000Y-102866000D01*
X182241000Y-101601505D01*
X182238992Y-101600000D01*
X182241000Y-101598495D01*
X182241000Y-100334000D01*
X180976506Y-100334000D01*
X180805581Y-100562031D01*
X179905581Y-100562031D01*
X179979399Y-100384258D01*
X179979648Y-100097969D01*
X180805581Y-100097969D01*
X180976506Y-100326000D01*
X182241000Y-100326000D01*
X182241000Y-99061505D01*
X182249000Y-99061505D01*
X182249000Y-100326000D01*
X182269000Y-100326000D01*
X182269000Y-100334000D01*
X182249000Y-100334000D01*
X182249000Y-101598495D01*
X182251008Y-101600000D01*
X182249000Y-101601505D01*
X182249000Y-102866000D01*
X182269000Y-102866000D01*
X182269000Y-102874000D01*
X182249000Y-102874000D01*
X182249000Y-104138495D01*
X182477031Y-104309419D01*
X183010210Y-104111055D01*
X183426893Y-103723752D01*
X183501503Y-103560734D01*
X183555033Y-103690286D01*
X183962569Y-104098533D01*
X184495312Y-104319748D01*
X185072157Y-104320251D01*
X185605286Y-104099967D01*
X185935829Y-103770000D01*
X191782645Y-103770000D01*
X191913618Y-103966016D01*
X192174004Y-104140000D01*
X191913618Y-104313984D01*
X191577621Y-104816841D01*
X191459634Y-105410000D01*
X191577621Y-106003159D01*
X191913618Y-106506016D01*
X192416475Y-106842013D01*
X193009634Y-106960000D01*
X193070366Y-106960000D01*
X193663525Y-106842013D01*
X194166382Y-106506016D01*
X194502379Y-106003159D01*
X194620366Y-105410000D01*
X194502379Y-104816841D01*
X194166382Y-104313984D01*
X193905996Y-104140000D01*
X194166382Y-103966016D01*
X194502379Y-103463159D01*
X194620366Y-102870000D01*
X194502379Y-102276841D01*
X194183781Y-101800024D01*
X194373198Y-101678138D01*
X194544446Y-101427508D01*
X194604693Y-101130000D01*
X194604693Y-99530000D01*
X194552396Y-99252067D01*
X194388138Y-98996802D01*
X194137508Y-98825554D01*
X193840000Y-98765307D01*
X192240000Y-98765307D01*
X191962067Y-98817604D01*
X191706802Y-98981862D01*
X191616932Y-99113392D01*
X191435870Y-98932014D01*
X190829645Y-98680287D01*
X190173235Y-98679715D01*
X189566571Y-98930383D01*
X189483261Y-99013547D01*
X189408138Y-98896802D01*
X189157508Y-98725554D01*
X188860000Y-98665307D01*
X187060000Y-98665307D01*
X186782067Y-98717604D01*
X186526802Y-98881862D01*
X186355554Y-99132492D01*
X186295307Y-99430000D01*
X185935392Y-99430000D01*
X185607431Y-99101467D01*
X185074688Y-98880252D01*
X184497843Y-98879749D01*
X183964714Y-99100033D01*
X183556467Y-99507569D01*
X183501649Y-99639584D01*
X183426893Y-99476248D01*
X183010210Y-99088945D01*
X182477031Y-98890581D01*
X182249000Y-99061505D01*
X182241000Y-99061505D01*
X182012969Y-98890581D01*
X181479790Y-99088945D01*
X181063107Y-99476248D01*
X180826357Y-99993527D01*
X180805581Y-100097969D01*
X179979648Y-100097969D01*
X179980597Y-99011763D01*
X179456473Y-97743285D01*
X178486819Y-96771938D01*
X177219258Y-96245601D01*
X176701577Y-96245149D01*
X177661726Y-95285000D01*
X178975307Y-95285000D01*
X178975307Y-96485000D01*
X179027604Y-96762933D01*
X179191862Y-97018198D01*
X179442492Y-97189446D01*
X179740000Y-97249693D01*
X180940000Y-97249693D01*
X181217933Y-97197396D01*
X181473198Y-97033138D01*
X181523810Y-96959065D01*
X181529389Y-97007516D01*
X182020661Y-97232277D01*
X182560550Y-97251927D01*
X183066862Y-97063475D01*
X183150611Y-97007516D01*
X183182233Y-96732890D01*
X182340000Y-95890657D01*
X182325858Y-95904799D01*
X182320201Y-95899142D01*
X182334343Y-95885000D01*
X182345657Y-95885000D01*
X183187890Y-96727233D01*
X183462516Y-96695611D01*
X183687277Y-96204339D01*
X183689600Y-96140497D01*
X183832428Y-96140497D01*
X184051049Y-96728586D01*
X184478081Y-97188247D01*
X185048511Y-97449500D01*
X185164503Y-97472572D01*
X185416000Y-97303494D01*
X185416000Y-95889000D01*
X184001505Y-95889000D01*
X183832428Y-96140497D01*
X183689600Y-96140497D01*
X183706927Y-95664450D01*
X183693920Y-95629503D01*
X183832428Y-95629503D01*
X184001505Y-95881000D01*
X185416000Y-95881000D01*
X185416000Y-94466506D01*
X185424000Y-94466506D01*
X185424000Y-95881000D01*
X185444000Y-95881000D01*
X185444000Y-95889000D01*
X185424000Y-95889000D01*
X185424000Y-97303494D01*
X185675497Y-97472572D01*
X185791489Y-97449500D01*
X186361919Y-97188247D01*
X186688000Y-96837250D01*
X186828629Y-97047717D01*
X187347707Y-97394553D01*
X187960000Y-97516346D01*
X188572293Y-97394553D01*
X189091371Y-97047717D01*
X189230000Y-96840244D01*
X189368629Y-97047717D01*
X189887707Y-97394553D01*
X190500000Y-97516346D01*
X191112293Y-97394553D01*
X191539491Y-97109109D01*
X191641862Y-97268198D01*
X191892492Y-97439446D01*
X192190000Y-97499693D01*
X193890000Y-97499693D01*
X194167933Y-97447396D01*
X194423198Y-97283138D01*
X194594446Y-97032508D01*
X194654693Y-96735000D01*
X194654693Y-95035000D01*
X194602396Y-94757067D01*
X194438138Y-94501802D01*
X194187508Y-94330554D01*
X193890000Y-94270307D01*
X192190000Y-94270307D01*
X191912067Y-94322604D01*
X191656802Y-94486862D01*
X191538394Y-94660158D01*
X191112293Y-94375447D01*
X190500000Y-94253654D01*
X189887707Y-94375447D01*
X189368629Y-94722283D01*
X189230000Y-94929756D01*
X189091371Y-94722283D01*
X188572293Y-94375447D01*
X187960000Y-94253654D01*
X187347707Y-94375447D01*
X186828629Y-94722283D01*
X186688000Y-94932750D01*
X186361919Y-94581753D01*
X185791489Y-94320500D01*
X185675497Y-94297428D01*
X185424000Y-94466506D01*
X185416000Y-94466506D01*
X185164503Y-94297428D01*
X185048511Y-94320500D01*
X184478081Y-94581753D01*
X184051049Y-95041414D01*
X183832428Y-95629503D01*
X183693920Y-95629503D01*
X183518475Y-95158138D01*
X183462516Y-95074389D01*
X183187890Y-95042767D01*
X182345657Y-95885000D01*
X182334343Y-95885000D01*
X182320201Y-95870858D01*
X182325858Y-95865201D01*
X182340000Y-95879343D01*
X183182233Y-95037110D01*
X183150611Y-94762484D01*
X182659339Y-94537723D01*
X182119450Y-94518073D01*
X181613138Y-94706525D01*
X181529389Y-94762484D01*
X181524171Y-94807799D01*
X181488138Y-94751802D01*
X181237508Y-94580554D01*
X180940000Y-94520307D01*
X179740000Y-94520307D01*
X179462067Y-94572604D01*
X179206802Y-94736862D01*
X179035554Y-94987492D01*
X178975307Y-95285000D01*
X177661726Y-95285000D01*
X178776726Y-94170000D01*
X195330000Y-94170000D01*
X195330000Y-121920000D01*
X195330000Y-121920000D01*
G37*
X195330000Y-121920000D02*
X195349696Y-122017264D01*
X195432957Y-122122184D01*
X202315000Y-127127306D01*
X202315000Y-143320000D01*
X182449381Y-143320000D01*
X182508230Y-143298148D01*
X182625262Y-143219950D01*
X182717714Y-142893371D01*
X181515000Y-141690657D01*
X180312286Y-142893371D01*
X180404738Y-143219950D01*
X180622974Y-143320000D01*
X178776726Y-143320000D01*
X177442026Y-141985300D01*
X179644553Y-141985300D01*
X179901852Y-142678230D01*
X179980050Y-142795262D01*
X180306629Y-142887714D01*
X181509343Y-141685000D01*
X181520657Y-141685000D01*
X182723371Y-142887714D01*
X183049950Y-142795262D01*
X183357988Y-142123348D01*
X183385447Y-141384700D01*
X183128148Y-140691770D01*
X183049950Y-140574738D01*
X182723371Y-140482286D01*
X181520657Y-141685000D01*
X181509343Y-141685000D01*
X180306629Y-140482286D01*
X179980050Y-140574738D01*
X179672012Y-141246652D01*
X179644553Y-141985300D01*
X177442026Y-141985300D01*
X176701877Y-141245151D01*
X177213237Y-141245597D01*
X178481715Y-140721473D01*
X178726986Y-140476629D01*
X180312286Y-140476629D01*
X181515000Y-141679343D01*
X182717714Y-140476629D01*
X182625262Y-140150050D01*
X181953348Y-139842012D01*
X181214700Y-139814553D01*
X180521770Y-140071852D01*
X180404738Y-140150050D01*
X180312286Y-140476629D01*
X178726986Y-140476629D01*
X179453062Y-139751819D01*
X179979399Y-138484258D01*
X179980597Y-137111763D01*
X179456473Y-135843285D01*
X178486819Y-134871938D01*
X177219258Y-134345601D01*
X175846763Y-134344403D01*
X174578285Y-134868527D01*
X174180000Y-135266118D01*
X174180000Y-131638500D01*
X174287000Y-131638500D01*
X174287000Y-132445775D01*
X174402398Y-132724372D01*
X174615627Y-132937601D01*
X174894224Y-133053000D01*
X175701500Y-133053000D01*
X175891000Y-132863500D01*
X175891000Y-131449000D01*
X175899000Y-131449000D01*
X175899000Y-132863500D01*
X176088500Y-133053000D01*
X176895776Y-133053000D01*
X177174373Y-132937601D01*
X177387602Y-132724372D01*
X177503000Y-132445775D01*
X177503000Y-131638500D01*
X177313500Y-131449000D01*
X175899000Y-131449000D01*
X175891000Y-131449000D01*
X174476500Y-131449000D01*
X174287000Y-131638500D01*
X174180000Y-131638500D01*
X174180000Y-111125000D01*
X174263654Y-111125000D01*
X174385447Y-111737293D01*
X174732283Y-112256371D01*
X174939756Y-112395000D01*
X174732283Y-112533629D01*
X174385447Y-113052707D01*
X174263654Y-113665000D01*
X174385447Y-114277293D01*
X174732283Y-114796371D01*
X174939756Y-114935000D01*
X174732283Y-115073629D01*
X174385447Y-115592707D01*
X174263654Y-116205000D01*
X174385447Y-116817293D01*
X174732283Y-117336371D01*
X174939756Y-117475000D01*
X174732283Y-117613629D01*
X174385447Y-118132707D01*
X174263654Y-118745000D01*
X174385447Y-119357293D01*
X174732283Y-119876371D01*
X174939756Y-120015000D01*
X174732283Y-120153629D01*
X174385447Y-120672707D01*
X174263654Y-121285000D01*
X174385447Y-121897293D01*
X174732283Y-122416371D01*
X174939756Y-122555000D01*
X174732283Y-122693629D01*
X174385447Y-123212707D01*
X174263654Y-123825000D01*
X174385447Y-124437293D01*
X174732283Y-124956371D01*
X174939756Y-125095000D01*
X174732283Y-125233629D01*
X174385447Y-125752707D01*
X174263654Y-126365000D01*
X174385447Y-126977293D01*
X174732283Y-127496371D01*
X174939756Y-127635000D01*
X174732283Y-127773629D01*
X174385447Y-128292707D01*
X174263654Y-128905000D01*
X174385447Y-129517293D01*
X174663050Y-129932756D01*
X174615627Y-129952399D01*
X174402398Y-130165628D01*
X174287000Y-130444225D01*
X174287000Y-131251500D01*
X174476500Y-131441000D01*
X175891000Y-131441000D01*
X175891000Y-131421000D01*
X175899000Y-131421000D01*
X175899000Y-131441000D01*
X177313500Y-131441000D01*
X177503000Y-131251500D01*
X177503000Y-130515792D01*
X178961140Y-131973932D01*
X178815372Y-132119446D01*
X178715294Y-132360460D01*
X178476000Y-132459334D01*
X178180372Y-132754446D01*
X178020182Y-133140226D01*
X178019818Y-133557942D01*
X178179334Y-133944000D01*
X178474446Y-134239628D01*
X178837653Y-134390445D01*
X180338604Y-135891396D01*
X180630585Y-136086492D01*
X180975000Y-136155000D01*
X182531714Y-136155000D01*
X182465182Y-136315226D01*
X182464818Y-136732942D01*
X182624334Y-137119000D01*
X182919446Y-137414628D01*
X183305226Y-137574818D01*
X183625213Y-137575097D01*
X183675000Y-137585000D01*
X183748532Y-137585000D01*
X183772604Y-137712933D01*
X183936862Y-137968198D01*
X184187492Y-138139446D01*
X184485000Y-138199693D01*
X185085000Y-138199693D01*
X185362933Y-138147396D01*
X185417623Y-138112204D01*
X185457492Y-138139446D01*
X185755000Y-138199693D01*
X186355000Y-138199693D01*
X186632933Y-138147396D01*
X186687623Y-138112204D01*
X186727492Y-138139446D01*
X187025000Y-138199693D01*
X187625000Y-138199693D01*
X187902933Y-138147396D01*
X187957623Y-138112204D01*
X187997492Y-138139446D01*
X188295000Y-138199693D01*
X188895000Y-138199693D01*
X189172933Y-138147396D01*
X189227623Y-138112204D01*
X189267492Y-138139446D01*
X189565000Y-138199693D01*
X190165000Y-138199693D01*
X190442933Y-138147396D01*
X190497623Y-138112204D01*
X190537492Y-138139446D01*
X190835000Y-138199693D01*
X191435000Y-138199693D01*
X191712933Y-138147396D01*
X191767623Y-138112204D01*
X191807492Y-138139446D01*
X192105000Y-138199693D01*
X192705000Y-138199693D01*
X192982933Y-138147396D01*
X193238198Y-137983138D01*
X193409446Y-137732508D01*
X193469693Y-137435000D01*
X193469693Y-137113865D01*
X193555000Y-136685000D01*
X193555000Y-134620000D01*
X193467461Y-134179914D01*
X193218173Y-133806827D01*
X192845086Y-133557539D01*
X192405000Y-133470000D01*
X191964914Y-133557539D01*
X191715565Y-133724148D01*
X191344774Y-133570182D01*
X190927058Y-133569818D01*
X190541000Y-133729334D01*
X190500188Y-133770075D01*
X190460554Y-133730372D01*
X190074774Y-133570182D01*
X189657058Y-133569818D01*
X189271000Y-133729334D01*
X189230188Y-133770075D01*
X189190554Y-133730372D01*
X188804774Y-133570182D01*
X188387058Y-133569818D01*
X188162848Y-133662460D01*
X188225000Y-133350000D01*
X188225000Y-132785518D01*
X188295000Y-132799693D01*
X188895000Y-132799693D01*
X189172933Y-132747396D01*
X189227623Y-132712204D01*
X189267492Y-132739446D01*
X189565000Y-132799693D01*
X190165000Y-132799693D01*
X190442933Y-132747396D01*
X190497623Y-132712204D01*
X190537492Y-132739446D01*
X190835000Y-132799693D01*
X191435000Y-132799693D01*
X191712933Y-132747396D01*
X191764311Y-132714335D01*
X191954225Y-132793000D01*
X192211500Y-132793000D01*
X192401000Y-132603500D01*
X192401000Y-131289000D01*
X192409000Y-131289000D01*
X192409000Y-132603500D01*
X192598500Y-132793000D01*
X192855775Y-132793000D01*
X193134372Y-132677602D01*
X193347601Y-132464373D01*
X193463000Y-132185776D01*
X193463000Y-131478500D01*
X193273500Y-131289000D01*
X192409000Y-131289000D01*
X192401000Y-131289000D01*
X192381000Y-131289000D01*
X192381000Y-131281000D01*
X192401000Y-131281000D01*
X192401000Y-129966500D01*
X192409000Y-129966500D01*
X192409000Y-131281000D01*
X193273500Y-131281000D01*
X193463000Y-131091500D01*
X193463000Y-130384224D01*
X193347601Y-130105627D01*
X193134372Y-129892398D01*
X192855775Y-129777000D01*
X192598500Y-129777000D01*
X192409000Y-129966500D01*
X192401000Y-129966500D01*
X192211500Y-129777000D01*
X192035000Y-129777000D01*
X192035000Y-128905000D01*
X191966492Y-128560585D01*
X191771396Y-128268604D01*
X191136396Y-127633604D01*
X190844415Y-127438508D01*
X190500000Y-127370000D01*
X188912291Y-127370000D01*
X189189000Y-127255666D01*
X189484628Y-126960554D01*
X189635445Y-126597347D01*
X190237792Y-125995000D01*
X192405000Y-125995000D01*
X192749415Y-125926492D01*
X193041396Y-125731396D01*
X194311396Y-124461396D01*
X194506492Y-124169416D01*
X194575000Y-123825000D01*
X194575000Y-118745000D01*
X194506492Y-118400585D01*
X194311396Y-118108604D01*
X193280912Y-117078120D01*
X193663525Y-117002013D01*
X194166382Y-116666016D01*
X194502379Y-116163159D01*
X194620366Y-115570000D01*
X194502379Y-114976841D01*
X194166382Y-114473984D01*
X193905996Y-114300000D01*
X194166382Y-114126016D01*
X194502379Y-113623159D01*
X194620366Y-113030000D01*
X194502379Y-112436841D01*
X194183781Y-111960024D01*
X194373198Y-111838138D01*
X194544446Y-111587508D01*
X194604693Y-111290000D01*
X194604693Y-109690000D01*
X194552396Y-109412067D01*
X194388138Y-109156802D01*
X194137508Y-108985554D01*
X193883119Y-108934039D01*
X193871492Y-108875584D01*
X193676396Y-108583604D01*
X192406396Y-107313604D01*
X192114415Y-107118508D01*
X191926273Y-107081085D01*
X191899617Y-107016571D01*
X191435870Y-106552014D01*
X190829645Y-106300287D01*
X190173235Y-106299715D01*
X189566571Y-106550383D01*
X189483261Y-106633547D01*
X189408138Y-106516802D01*
X189157508Y-106345554D01*
X188860000Y-106285307D01*
X187060000Y-106285307D01*
X186953196Y-106305404D01*
X186115278Y-105467486D01*
X186014967Y-105224714D01*
X185607431Y-104816467D01*
X185074688Y-104595252D01*
X184497843Y-104594749D01*
X183964714Y-104815033D01*
X183556467Y-105222569D01*
X183501649Y-105354584D01*
X183426893Y-105191248D01*
X183010210Y-104803945D01*
X182477031Y-104605581D01*
X182249000Y-104776505D01*
X182249000Y-106041000D01*
X182269000Y-106041000D01*
X182269000Y-106049000D01*
X182249000Y-106049000D01*
X182249000Y-107313495D01*
X182251008Y-107315000D01*
X182249000Y-107316505D01*
X182249000Y-108581000D01*
X182269000Y-108581000D01*
X182269000Y-108589000D01*
X182249000Y-108589000D01*
X182249000Y-109853495D01*
X182477031Y-110024419D01*
X183010210Y-109826055D01*
X183426893Y-109438752D01*
X183501503Y-109275734D01*
X183555033Y-109405286D01*
X183962569Y-109813533D01*
X184495312Y-110034748D01*
X185072157Y-110035251D01*
X185443870Y-109881662D01*
X186422208Y-110860000D01*
X185935392Y-110860000D01*
X185607431Y-110531467D01*
X185074688Y-110310252D01*
X184497843Y-110309749D01*
X183964714Y-110530033D01*
X183556467Y-110937569D01*
X183509632Y-111050360D01*
X183298712Y-110734695D01*
X182828298Y-110420375D01*
X182273407Y-110310000D01*
X182216593Y-110310000D01*
X181661702Y-110420375D01*
X181191288Y-110734695D01*
X180876968Y-111205109D01*
X180766593Y-111760000D01*
X180876968Y-112314891D01*
X181191288Y-112785305D01*
X181661702Y-113099625D01*
X182216593Y-113210000D01*
X182273407Y-113210000D01*
X182828298Y-113099625D01*
X183298712Y-112785305D01*
X183509436Y-112469933D01*
X183555033Y-112580286D01*
X183962569Y-112988533D01*
X184495312Y-113209748D01*
X185072157Y-113210251D01*
X185605286Y-112989967D01*
X185935829Y-112660000D01*
X186317208Y-112660000D01*
X187060000Y-113402792D01*
X187060000Y-114252686D01*
X186828629Y-114407283D01*
X186690000Y-114614756D01*
X186551371Y-114407283D01*
X186032293Y-114060447D01*
X185420000Y-113938654D01*
X184807707Y-114060447D01*
X184288629Y-114407283D01*
X184150000Y-114614756D01*
X184011371Y-114407283D01*
X183492293Y-114060447D01*
X182880000Y-113938654D01*
X182267707Y-114060447D01*
X181840509Y-114345891D01*
X181738138Y-114186802D01*
X181487508Y-114015554D01*
X181190000Y-113955307D01*
X179490000Y-113955307D01*
X179212067Y-114007604D01*
X178956802Y-114171862D01*
X178785554Y-114422492D01*
X178725307Y-114720000D01*
X178725307Y-116420000D01*
X178777604Y-116697933D01*
X178941862Y-116953198D01*
X179192492Y-117124446D01*
X179490000Y-117184693D01*
X179508694Y-117184693D01*
X179703604Y-117476396D01*
X180338604Y-118111396D01*
X180630585Y-118306492D01*
X180975000Y-118375000D01*
X181642802Y-118375000D01*
X181499453Y-118529308D01*
X181278995Y-119122376D01*
X181447905Y-119376000D01*
X182876000Y-119376000D01*
X182876000Y-119356000D01*
X182884000Y-119356000D01*
X182884000Y-119376000D01*
X182904000Y-119376000D01*
X182904000Y-119384000D01*
X182884000Y-119384000D01*
X182884000Y-119404000D01*
X182876000Y-119404000D01*
X182876000Y-119384000D01*
X181447905Y-119384000D01*
X181278995Y-119637624D01*
X181499453Y-120230692D01*
X181654757Y-120397870D01*
X181483202Y-120508262D01*
X181311954Y-120758892D01*
X181251707Y-121056400D01*
X181251707Y-122783600D01*
X181304004Y-123061533D01*
X181468262Y-123316798D01*
X181718892Y-123488046D01*
X182016400Y-123548293D01*
X183435361Y-123548293D01*
X182353591Y-124630063D01*
X181884602Y-124435321D01*
X181148627Y-124434679D01*
X180605000Y-124659301D01*
X180605000Y-120015000D01*
X180562166Y-119799658D01*
X180536492Y-119670584D01*
X180341396Y-119378604D01*
X179071396Y-118108604D01*
X178779415Y-117913508D01*
X178435000Y-117845000D01*
X177212314Y-117845000D01*
X177057717Y-117613629D01*
X176850244Y-117475000D01*
X177057717Y-117336371D01*
X177404553Y-116817293D01*
X177526346Y-116205000D01*
X177404553Y-115592707D01*
X177057717Y-115073629D01*
X176850244Y-114935000D01*
X177057717Y-114796371D01*
X177404553Y-114277293D01*
X177526346Y-113665000D01*
X177404553Y-113052707D01*
X177057717Y-112533629D01*
X176850244Y-112395000D01*
X177057717Y-112256371D01*
X177404553Y-111737293D01*
X177526346Y-111125000D01*
X177404553Y-110512707D01*
X177057717Y-109993629D01*
X176538639Y-109646793D01*
X175926346Y-109525000D01*
X175863654Y-109525000D01*
X175251361Y-109646793D01*
X174732283Y-109993629D01*
X174385447Y-110512707D01*
X174263654Y-111125000D01*
X174180000Y-111125000D01*
X174180000Y-108817031D01*
X180805581Y-108817031D01*
X180826357Y-108921473D01*
X181063107Y-109438752D01*
X181479790Y-109826055D01*
X182012969Y-110024419D01*
X182241000Y-109853495D01*
X182241000Y-108589000D01*
X180976506Y-108589000D01*
X180805581Y-108817031D01*
X174180000Y-108817031D01*
X174180000Y-106277031D01*
X180805581Y-106277031D01*
X180826357Y-106381473D01*
X181063107Y-106898752D01*
X181479790Y-107286055D01*
X181557591Y-107315000D01*
X181479790Y-107343945D01*
X181063107Y-107731248D01*
X180826357Y-108248527D01*
X180805581Y-108352969D01*
X180976506Y-108581000D01*
X182241000Y-108581000D01*
X182241000Y-107316505D01*
X182238992Y-107315000D01*
X182241000Y-107313495D01*
X182241000Y-106049000D01*
X180976506Y-106049000D01*
X180805581Y-106277031D01*
X174180000Y-106277031D01*
X174180000Y-105812969D01*
X180805581Y-105812969D01*
X180976506Y-106041000D01*
X182241000Y-106041000D01*
X182241000Y-104776505D01*
X182012969Y-104605581D01*
X181479790Y-104803945D01*
X181063107Y-105191248D01*
X180826357Y-105708527D01*
X180805581Y-105812969D01*
X174180000Y-105812969D01*
X174180000Y-102224195D01*
X174573181Y-102618062D01*
X175840742Y-103144399D01*
X177213237Y-103145597D01*
X177318674Y-103102031D01*
X180805581Y-103102031D01*
X180826357Y-103206473D01*
X181063107Y-103723752D01*
X181479790Y-104111055D01*
X182012969Y-104309419D01*
X182241000Y-104138495D01*
X182241000Y-102874000D01*
X180976506Y-102874000D01*
X180805581Y-103102031D01*
X177318674Y-103102031D01*
X178481715Y-102621473D01*
X179453062Y-101651819D01*
X179905581Y-100562031D01*
X180805581Y-100562031D01*
X180826357Y-100666473D01*
X181063107Y-101183752D01*
X181479790Y-101571055D01*
X181557591Y-101600000D01*
X181479790Y-101628945D01*
X181063107Y-102016248D01*
X180826357Y-102533527D01*
X180805581Y-102637969D01*
X180976506Y-102866000D01*
X182241000Y-102866000D01*
X182241000Y-101601505D01*
X182238992Y-101600000D01*
X182241000Y-101598495D01*
X182241000Y-100334000D01*
X180976506Y-100334000D01*
X180805581Y-100562031D01*
X179905581Y-100562031D01*
X179979399Y-100384258D01*
X179979648Y-100097969D01*
X180805581Y-100097969D01*
X180976506Y-100326000D01*
X182241000Y-100326000D01*
X182241000Y-99061505D01*
X182249000Y-99061505D01*
X182249000Y-100326000D01*
X182269000Y-100326000D01*
X182269000Y-100334000D01*
X182249000Y-100334000D01*
X182249000Y-101598495D01*
X182251008Y-101600000D01*
X182249000Y-101601505D01*
X182249000Y-102866000D01*
X182269000Y-102866000D01*
X182269000Y-102874000D01*
X182249000Y-102874000D01*
X182249000Y-104138495D01*
X182477031Y-104309419D01*
X183010210Y-104111055D01*
X183426893Y-103723752D01*
X183501503Y-103560734D01*
X183555033Y-103690286D01*
X183962569Y-104098533D01*
X184495312Y-104319748D01*
X185072157Y-104320251D01*
X185605286Y-104099967D01*
X185935829Y-103770000D01*
X191782645Y-103770000D01*
X191913618Y-103966016D01*
X192174004Y-104140000D01*
X191913618Y-104313984D01*
X191577621Y-104816841D01*
X191459634Y-105410000D01*
X191577621Y-106003159D01*
X191913618Y-106506016D01*
X192416475Y-106842013D01*
X193009634Y-106960000D01*
X193070366Y-106960000D01*
X193663525Y-106842013D01*
X194166382Y-106506016D01*
X194502379Y-106003159D01*
X194620366Y-105410000D01*
X194502379Y-104816841D01*
X194166382Y-104313984D01*
X193905996Y-104140000D01*
X194166382Y-103966016D01*
X194502379Y-103463159D01*
X194620366Y-102870000D01*
X194502379Y-102276841D01*
X194183781Y-101800024D01*
X194373198Y-101678138D01*
X194544446Y-101427508D01*
X194604693Y-101130000D01*
X194604693Y-99530000D01*
X194552396Y-99252067D01*
X194388138Y-98996802D01*
X194137508Y-98825554D01*
X193840000Y-98765307D01*
X192240000Y-98765307D01*
X191962067Y-98817604D01*
X191706802Y-98981862D01*
X191616932Y-99113392D01*
X191435870Y-98932014D01*
X190829645Y-98680287D01*
X190173235Y-98679715D01*
X189566571Y-98930383D01*
X189483261Y-99013547D01*
X189408138Y-98896802D01*
X189157508Y-98725554D01*
X188860000Y-98665307D01*
X187060000Y-98665307D01*
X186782067Y-98717604D01*
X186526802Y-98881862D01*
X186355554Y-99132492D01*
X186295307Y-99430000D01*
X185935392Y-99430000D01*
X185607431Y-99101467D01*
X185074688Y-98880252D01*
X184497843Y-98879749D01*
X183964714Y-99100033D01*
X183556467Y-99507569D01*
X183501649Y-99639584D01*
X183426893Y-99476248D01*
X183010210Y-99088945D01*
X182477031Y-98890581D01*
X182249000Y-99061505D01*
X182241000Y-99061505D01*
X182012969Y-98890581D01*
X181479790Y-99088945D01*
X181063107Y-99476248D01*
X180826357Y-99993527D01*
X180805581Y-100097969D01*
X179979648Y-100097969D01*
X179980597Y-99011763D01*
X179456473Y-97743285D01*
X178486819Y-96771938D01*
X177219258Y-96245601D01*
X176701577Y-96245149D01*
X177661726Y-95285000D01*
X178975307Y-95285000D01*
X178975307Y-96485000D01*
X179027604Y-96762933D01*
X179191862Y-97018198D01*
X179442492Y-97189446D01*
X179740000Y-97249693D01*
X180940000Y-97249693D01*
X181217933Y-97197396D01*
X181473198Y-97033138D01*
X181523810Y-96959065D01*
X181529389Y-97007516D01*
X182020661Y-97232277D01*
X182560550Y-97251927D01*
X183066862Y-97063475D01*
X183150611Y-97007516D01*
X183182233Y-96732890D01*
X182340000Y-95890657D01*
X182325858Y-95904799D01*
X182320201Y-95899142D01*
X182334343Y-95885000D01*
X182345657Y-95885000D01*
X183187890Y-96727233D01*
X183462516Y-96695611D01*
X183687277Y-96204339D01*
X183689600Y-96140497D01*
X183832428Y-96140497D01*
X184051049Y-96728586D01*
X184478081Y-97188247D01*
X185048511Y-97449500D01*
X185164503Y-97472572D01*
X185416000Y-97303494D01*
X185416000Y-95889000D01*
X184001505Y-95889000D01*
X183832428Y-96140497D01*
X183689600Y-96140497D01*
X183706927Y-95664450D01*
X183693920Y-95629503D01*
X183832428Y-95629503D01*
X184001505Y-95881000D01*
X185416000Y-95881000D01*
X185416000Y-94466506D01*
X185424000Y-94466506D01*
X185424000Y-95881000D01*
X185444000Y-95881000D01*
X185444000Y-95889000D01*
X185424000Y-95889000D01*
X185424000Y-97303494D01*
X185675497Y-97472572D01*
X185791489Y-97449500D01*
X186361919Y-97188247D01*
X186688000Y-96837250D01*
X186828629Y-97047717D01*
X187347707Y-97394553D01*
X187960000Y-97516346D01*
X188572293Y-97394553D01*
X189091371Y-97047717D01*
X189230000Y-96840244D01*
X189368629Y-97047717D01*
X189887707Y-97394553D01*
X190500000Y-97516346D01*
X191112293Y-97394553D01*
X191539491Y-97109109D01*
X191641862Y-97268198D01*
X191892492Y-97439446D01*
X192190000Y-97499693D01*
X193890000Y-97499693D01*
X194167933Y-97447396D01*
X194423198Y-97283138D01*
X194594446Y-97032508D01*
X194654693Y-96735000D01*
X194654693Y-95035000D01*
X194602396Y-94757067D01*
X194438138Y-94501802D01*
X194187508Y-94330554D01*
X193890000Y-94270307D01*
X192190000Y-94270307D01*
X191912067Y-94322604D01*
X191656802Y-94486862D01*
X191538394Y-94660158D01*
X191112293Y-94375447D01*
X190500000Y-94253654D01*
X189887707Y-94375447D01*
X189368629Y-94722283D01*
X189230000Y-94929756D01*
X189091371Y-94722283D01*
X188572293Y-94375447D01*
X187960000Y-94253654D01*
X187347707Y-94375447D01*
X186828629Y-94722283D01*
X186688000Y-94932750D01*
X186361919Y-94581753D01*
X185791489Y-94320500D01*
X185675497Y-94297428D01*
X185424000Y-94466506D01*
X185416000Y-94466506D01*
X185164503Y-94297428D01*
X185048511Y-94320500D01*
X184478081Y-94581753D01*
X184051049Y-95041414D01*
X183832428Y-95629503D01*
X183693920Y-95629503D01*
X183518475Y-95158138D01*
X183462516Y-95074389D01*
X183187890Y-95042767D01*
X182345657Y-95885000D01*
X182334343Y-95885000D01*
X182320201Y-95870858D01*
X182325858Y-95865201D01*
X182340000Y-95879343D01*
X183182233Y-95037110D01*
X183150611Y-94762484D01*
X182659339Y-94537723D01*
X182119450Y-94518073D01*
X181613138Y-94706525D01*
X181529389Y-94762484D01*
X181524171Y-94807799D01*
X181488138Y-94751802D01*
X181237508Y-94580554D01*
X180940000Y-94520307D01*
X179740000Y-94520307D01*
X179462067Y-94572604D01*
X179206802Y-94736862D01*
X179035554Y-94987492D01*
X178975307Y-95285000D01*
X177661726Y-95285000D01*
X178776726Y-94170000D01*
X195330000Y-94170000D01*
X195330000Y-121920000D01*
M02*
