G04 #@! TF.FileFunction,Copper,L1,Top,Signal*
%FSLAX46Y46*%
G04 Gerber Fmt 4.6, Leading zero omitted, Abs format (unit mm)*
G04 Created by KiCad (PCBNEW 4.0.7-e2-6376~58~ubuntu17.04.1) date Sat May  5 23:35:11 2018*
%MOMM*%
%LPD*%
G01*
G04 APERTURE LIST*
%ADD10C,0.100000*%
%ADD11C,5.400000*%
%ADD12C,2.200000*%
%ADD13R,1.700000X1.700000*%
%ADD14O,1.700000X1.700000*%
%ADD15R,1.727200X1.727200*%
%ADD16O,1.727200X1.727200*%
%ADD17R,1.600000X1.600000*%
%ADD18O,1.600000X1.600000*%
%ADD19R,1.800000X1.800000*%
%ADD20O,1.800000X1.800000*%
%ADD21C,1.800000*%
%ADD22C,2.400000*%
%ADD23O,2.400000X2.400000*%
%ADD24C,1.600000*%
%ADD25R,1.200000X1.200000*%
%ADD26C,1.200000*%
%ADD27C,2.500000*%
%ADD28R,2.500000X2.500000*%
%ADD29C,1.400000*%
%ADD30O,1.400000X1.400000*%
%ADD31C,0.600000*%
%ADD32C,0.300000*%
%ADD33C,0.800000*%
G04 APERTURE END LIST*
D10*
D11*
X176530000Y-137795000D03*
D12*
X210915000Y-136485000D03*
X210915000Y-131485000D03*
X181515000Y-141685000D03*
X181515000Y-126285000D03*
D13*
X175895000Y-131445000D03*
D14*
X175895000Y-128905000D03*
X175895000Y-126365000D03*
X175895000Y-123825000D03*
X175895000Y-121285000D03*
X175895000Y-118745000D03*
X175895000Y-116205000D03*
X175895000Y-113665000D03*
X175895000Y-111125000D03*
D11*
X176530000Y-99695000D03*
X220980000Y-137795000D03*
D15*
X182880000Y-121920000D03*
D16*
X182880000Y-119380000D03*
X185420000Y-121920000D03*
X185420000Y-119380000D03*
X187960000Y-121920000D03*
X187960000Y-119380000D03*
X190500000Y-121920000D03*
X190500000Y-119380000D03*
D17*
X193040000Y-110490000D03*
D18*
X200660000Y-115570000D03*
X193040000Y-113030000D03*
X200660000Y-113030000D03*
X193040000Y-115570000D03*
X200660000Y-110490000D03*
D19*
X210820000Y-115570000D03*
D20*
X208280000Y-115570000D03*
X205740000Y-115570000D03*
D19*
X187960000Y-100330000D03*
D21*
X190500000Y-100330000D03*
D19*
X187960000Y-107950000D03*
D21*
X190500000Y-107950000D03*
D17*
X193040000Y-100330000D03*
D18*
X200660000Y-105410000D03*
X193040000Y-102870000D03*
X200660000Y-102870000D03*
X193040000Y-105410000D03*
X200660000Y-100330000D03*
D19*
X210820000Y-100330000D03*
D20*
X208280000Y-100330000D03*
X205740000Y-100330000D03*
D13*
X193040000Y-95885000D03*
D14*
X190500000Y-95885000D03*
X187960000Y-95885000D03*
X185420000Y-95885000D03*
D22*
X205740000Y-95250000D03*
D23*
X200660000Y-95250000D03*
D22*
X208280000Y-110490000D03*
D23*
X203200000Y-110490000D03*
D22*
X211455000Y-105410000D03*
D23*
X203835000Y-105410000D03*
D22*
X211455000Y-120650000D03*
D23*
X203835000Y-120650000D03*
D13*
X180340000Y-115570000D03*
D14*
X182880000Y-115570000D03*
X185420000Y-115570000D03*
X187960000Y-115570000D03*
D11*
X220980000Y-99695000D03*
D24*
X209550000Y-95250000D03*
D18*
X217170000Y-95250000D03*
D25*
X180340000Y-95885000D03*
D26*
X182340000Y-95885000D03*
D27*
X219710000Y-106205000D03*
D28*
X219710000Y-116205000D03*
D27*
X219710000Y-111205000D03*
X219710000Y-121445000D03*
D28*
X219710000Y-131445000D03*
D27*
X219710000Y-126445000D03*
D29*
X184785000Y-100330000D03*
D30*
X182245000Y-100330000D03*
D29*
X184785000Y-106045000D03*
D30*
X182245000Y-106045000D03*
D29*
X184785000Y-102870000D03*
D30*
X182245000Y-102870000D03*
D29*
X184785000Y-108585000D03*
D30*
X182245000Y-108585000D03*
D29*
X184785000Y-111760000D03*
D30*
X182245000Y-111760000D03*
D31*
X191135000Y-134620000D03*
X189865000Y-134620000D03*
X186055000Y-126365000D03*
X186055000Y-132715000D03*
X184785000Y-126365000D03*
X184785000Y-132715000D03*
X183515000Y-136525000D03*
X188595000Y-126365000D03*
X188595000Y-134620000D03*
X179070000Y-133350000D03*
X179705000Y-132715000D03*
X192405000Y-134620000D03*
D32*
X191135000Y-132715000D02*
X191135000Y-126365000D01*
X191135000Y-126365000D02*
X193040000Y-124460000D01*
X193040000Y-95885000D02*
X193040000Y-100330000D01*
X191135000Y-115570000D02*
X191135000Y-116205000D01*
X191135000Y-116205000D02*
X193040000Y-118110000D01*
X193040000Y-124460000D02*
X193040000Y-118110000D01*
X191770000Y-109220000D02*
X192405000Y-108585000D01*
X192405000Y-107315000D02*
X191770000Y-106680000D01*
X192405000Y-108585000D02*
X192405000Y-107315000D01*
X190500000Y-105410000D02*
X190500000Y-100330000D01*
X191770000Y-106680000D02*
X190500000Y-105410000D01*
X191135000Y-109855000D02*
X191770000Y-109220000D01*
X191135000Y-115570000D02*
X191135000Y-109855000D01*
X191135000Y-134620000D02*
X191135000Y-132715000D01*
X186372500Y-101917500D02*
X186372500Y-98742500D01*
X186372500Y-98742500D02*
X186690000Y-98425000D01*
X189865000Y-132715000D02*
X189865000Y-126365000D01*
X189865000Y-126365000D02*
X192405000Y-123825000D01*
X190500000Y-95885000D02*
X190500000Y-97155000D01*
X190500000Y-97155000D02*
X189865000Y-97790000D01*
X187325000Y-97790000D02*
X186690000Y-98425000D01*
X189865000Y-97790000D02*
X187325000Y-97790000D01*
X189230000Y-106680000D02*
X189230000Y-104775000D01*
X189230000Y-106680000D02*
X190500000Y-107950000D01*
X186372500Y-101917500D02*
X189230000Y-104775000D01*
X190500000Y-116205000D02*
X190500000Y-116840000D01*
X190500000Y-116840000D02*
X192405000Y-118745000D01*
X192405000Y-123825000D02*
X192405000Y-118745000D01*
X190500000Y-114935000D02*
X190500000Y-116205000D01*
X190500000Y-114935000D02*
X190500000Y-107950000D01*
X189865000Y-132715000D02*
X189865000Y-133350000D01*
X189865000Y-133350000D02*
X189865000Y-134620000D01*
X182880000Y-121920000D02*
X182880000Y-123190000D01*
X182880000Y-123190000D02*
X186055000Y-126365000D01*
X186055000Y-132080000D02*
X186055000Y-126365000D01*
X186055000Y-132080000D02*
X186055000Y-132715000D01*
X189865000Y-115570000D02*
X189865000Y-114300000D01*
X182880000Y-114300000D02*
X182880000Y-115570000D01*
X183515000Y-113665000D02*
X182880000Y-114300000D01*
X189230000Y-113665000D02*
X183515000Y-113665000D01*
X189865000Y-114300000D02*
X189230000Y-113665000D01*
X190500000Y-119380000D02*
X189865000Y-118745000D01*
X189865000Y-118110000D02*
X189865000Y-115570000D01*
X189865000Y-118745000D02*
X189865000Y-118110000D01*
X184785000Y-132080000D02*
X184785000Y-132715000D01*
X184785000Y-132080000D02*
X184785000Y-126365000D01*
X185420000Y-117475000D02*
X185420000Y-115570000D01*
X180340000Y-123190000D02*
X180340000Y-118110000D01*
X180340000Y-118110000D02*
X180975000Y-117475000D01*
X185420000Y-117475000D02*
X180975000Y-117475000D01*
X185420000Y-119380000D02*
X185420000Y-117475000D01*
X183515000Y-127635000D02*
X183515000Y-125095000D01*
X180975000Y-123825000D02*
X180340000Y-123190000D01*
X182245000Y-123825000D02*
X180975000Y-123825000D01*
X183515000Y-125095000D02*
X182245000Y-123825000D01*
X183515000Y-135890000D02*
X183515000Y-127635000D01*
X183515000Y-136525000D02*
X183515000Y-135890000D01*
X187960000Y-119380000D02*
X187960000Y-115570000D01*
X188595000Y-134620000D02*
X188595000Y-126365000D01*
X179070000Y-133350000D02*
X177800000Y-132080000D01*
X177800000Y-117475000D02*
X176530000Y-116205000D01*
X177800000Y-132080000D02*
X177800000Y-117475000D01*
X176530000Y-116205000D02*
X175895000Y-116205000D01*
X178435000Y-131445000D02*
X178435000Y-129540000D01*
X179705000Y-132715000D02*
X178435000Y-131445000D01*
X177165000Y-113665000D02*
X175895000Y-113665000D01*
X178435000Y-129540000D02*
X178435000Y-114935000D01*
X178435000Y-114935000D02*
X177165000Y-113665000D01*
D33*
X182245000Y-111760000D02*
X180975000Y-111760000D01*
X180975000Y-111760000D02*
X180340000Y-111125000D01*
X180340000Y-95885000D02*
X180340000Y-111125000D01*
X177165000Y-133985000D02*
X177800000Y-133985000D01*
X177800000Y-133985000D02*
X178435000Y-134620000D01*
X181515000Y-134620000D02*
X178435000Y-134620000D01*
X175260000Y-133985000D02*
X173990000Y-132715000D01*
X177165000Y-133985000D02*
X175260000Y-133985000D01*
X187960000Y-94615000D02*
X187960000Y-93980000D01*
X180340000Y-95885000D02*
X180340000Y-94615000D01*
X180340000Y-94615000D02*
X180975000Y-93980000D01*
X180975000Y-93980000D02*
X187960000Y-93980000D01*
X187960000Y-93980000D02*
X188595000Y-93980000D01*
X182562500Y-138747500D02*
X194627500Y-138747500D01*
X194945000Y-138430000D02*
X194945000Y-134620000D01*
X194627500Y-138747500D02*
X194945000Y-138430000D01*
X193675000Y-134620000D02*
X194945000Y-134620000D01*
X192405000Y-134620000D02*
X193675000Y-134620000D01*
X194945000Y-134620000D02*
X194945000Y-133350000D01*
X194945000Y-127635000D02*
X194945000Y-128270000D01*
X194945000Y-125730000D02*
X194945000Y-127635000D01*
X194945000Y-128270000D02*
X194945000Y-132715000D01*
X194945000Y-133350000D02*
X194945000Y-132715000D01*
X173990000Y-132715000D02*
X173990000Y-130175000D01*
X173990000Y-130175000D02*
X175260000Y-128905000D01*
X175260000Y-128905000D02*
X175895000Y-128905000D01*
X194945000Y-93980000D02*
X188595000Y-93980000D01*
X194945000Y-93980000D02*
X194945000Y-121285000D01*
X187960000Y-94615000D02*
X187960000Y-95885000D01*
X187960000Y-95250000D02*
X187960000Y-94615000D01*
X194945000Y-121285000D02*
X194945000Y-125730000D01*
X181515000Y-126285000D02*
X181515000Y-128905000D01*
X181515000Y-128905000D02*
X181515000Y-129540000D01*
X181515000Y-129540000D02*
X181515000Y-133985000D01*
X181515000Y-133985000D02*
X181515000Y-134620000D01*
X181515000Y-134620000D02*
X181515000Y-135890000D01*
X181515000Y-135890000D02*
X181515000Y-137700000D01*
X181515000Y-137700000D02*
X182562500Y-138747500D01*
X181515000Y-126285000D02*
X181515000Y-126270000D01*
M02*
