M48
;DRILL file {KiCad 4.0.7-e2-6376~58~ubuntu17.04.1} date Sat May  5 23:35:13 2018
;FORMAT={-:-/ absolute / metric / decimal}
FMAT,2
METRIC,TZ
T1C0.400
T2C0.600
T3C0.700
T4C0.800
T5C0.900
T6C1.000
T7C1.016
T8C1.200
T9C1.250
T10C1.300
T11C2.700
%
G90
G05
M71
T1
X179.07Y-133.35
X179.705Y-132.715
X183.515Y-136.525
X184.785Y-126.365
X184.785Y-132.715
X186.055Y-126.365
X186.055Y-132.715
X188.595Y-126.365
X188.595Y-134.62
X189.865Y-134.62
X191.135Y-134.62
X192.405Y-134.62
T2
X180.34Y-95.885
X182.34Y-95.885
T3
X182.245Y-100.33
X182.245Y-102.87
X182.245Y-106.045
X182.245Y-108.585
X182.245Y-111.76
X184.785Y-100.33
X184.785Y-102.87
X184.785Y-106.045
X184.785Y-108.585
X184.785Y-111.76
T4
X193.04Y-100.33
X193.04Y-102.87
X193.04Y-105.41
X193.04Y-110.49
X193.04Y-113.03
X193.04Y-115.57
X200.66Y-100.33
X200.66Y-102.87
X200.66Y-105.41
X200.66Y-110.49
X200.66Y-113.03
X200.66Y-115.57
X209.55Y-95.25
X217.17Y-95.25
T5
X187.96Y-100.33
X187.96Y-107.95
X190.5Y-100.33
X190.5Y-107.95
T6
X175.895Y-111.125
X175.895Y-113.665
X175.895Y-116.205
X175.895Y-118.745
X175.895Y-121.285
X175.895Y-123.825
X175.895Y-126.365
X175.895Y-128.905
X175.895Y-131.445
X180.34Y-115.57
X182.88Y-115.57
X185.42Y-95.885
X185.42Y-115.57
X187.96Y-95.885
X187.96Y-115.57
X190.5Y-95.885
X193.04Y-95.885
X205.74Y-100.33
X205.74Y-115.57
X208.28Y-100.33
X208.28Y-115.57
X210.82Y-100.33
X210.82Y-115.57
T7
X182.88Y-119.38
X182.88Y-121.92
X185.42Y-119.38
X185.42Y-121.92
X187.96Y-119.38
X187.96Y-121.92
X190.5Y-119.38
X190.5Y-121.92
T8
X200.66Y-95.25
X203.2Y-110.49
X203.835Y-105.41
X203.835Y-120.65
X205.74Y-95.25
X208.28Y-110.49
X211.455Y-105.41
X211.455Y-120.65
T9
X181.515Y-126.285
X181.515Y-141.685
X210.915Y-131.485
X210.915Y-136.485
T10
X219.71Y-106.205
X219.71Y-111.205
X219.71Y-116.205
X219.71Y-121.445
X219.71Y-126.445
X219.71Y-131.445
T11
X176.53Y-99.695
X176.53Y-137.795
X220.98Y-99.695
X220.98Y-137.795
T0
M30
