G04 #@! TF.FileFunction,Soldermask,Top*
%FSLAX46Y46*%
G04 Gerber Fmt 4.6, Leading zero omitted, Abs format (unit mm)*
G04 Created by KiCad (PCBNEW 4.0.7-e2-6376~58~ubuntu17.04.1) date Sat May  5 23:35:11 2018*
%MOMM*%
%LPD*%
G01*
G04 APERTURE LIST*
%ADD10C,0.100000*%
%ADD11C,5.800000*%
%ADD12C,2.600000*%
%ADD13R,2.100000X2.100000*%
%ADD14O,2.100000X2.100000*%
%ADD15R,2.127200X2.127200*%
%ADD16O,2.127200X2.127200*%
%ADD17R,2.000000X2.000000*%
%ADD18O,2.000000X2.000000*%
%ADD19R,2.200000X2.200000*%
%ADD20O,2.200000X2.200000*%
%ADD21C,2.200000*%
%ADD22C,2.800000*%
%ADD23O,2.800000X2.800000*%
%ADD24C,2.000000*%
%ADD25R,1.600000X1.600000*%
%ADD26C,1.600000*%
%ADD27C,2.900000*%
%ADD28R,2.900000X2.900000*%
%ADD29C,1.800000*%
%ADD30O,1.800000X1.800000*%
G04 APERTURE END LIST*
D10*
D11*
X176530000Y-137795000D03*
D12*
X210915000Y-136485000D03*
X210915000Y-131485000D03*
X181515000Y-141685000D03*
X181515000Y-126285000D03*
D13*
X175895000Y-131445000D03*
D14*
X175895000Y-128905000D03*
X175895000Y-126365000D03*
X175895000Y-123825000D03*
X175895000Y-121285000D03*
X175895000Y-118745000D03*
X175895000Y-116205000D03*
X175895000Y-113665000D03*
X175895000Y-111125000D03*
D11*
X176530000Y-99695000D03*
X220980000Y-137795000D03*
D15*
X182880000Y-121920000D03*
D16*
X182880000Y-119380000D03*
X185420000Y-121920000D03*
X185420000Y-119380000D03*
X187960000Y-121920000D03*
X187960000Y-119380000D03*
X190500000Y-121920000D03*
X190500000Y-119380000D03*
D17*
X193040000Y-110490000D03*
D18*
X200660000Y-115570000D03*
X193040000Y-113030000D03*
X200660000Y-113030000D03*
X193040000Y-115570000D03*
X200660000Y-110490000D03*
D19*
X210820000Y-115570000D03*
D20*
X208280000Y-115570000D03*
X205740000Y-115570000D03*
D19*
X187960000Y-100330000D03*
D21*
X190500000Y-100330000D03*
D19*
X187960000Y-107950000D03*
D21*
X190500000Y-107950000D03*
D17*
X193040000Y-100330000D03*
D18*
X200660000Y-105410000D03*
X193040000Y-102870000D03*
X200660000Y-102870000D03*
X193040000Y-105410000D03*
X200660000Y-100330000D03*
D19*
X210820000Y-100330000D03*
D20*
X208280000Y-100330000D03*
X205740000Y-100330000D03*
D13*
X193040000Y-95885000D03*
D14*
X190500000Y-95885000D03*
X187960000Y-95885000D03*
X185420000Y-95885000D03*
D22*
X205740000Y-95250000D03*
D23*
X200660000Y-95250000D03*
D22*
X208280000Y-110490000D03*
D23*
X203200000Y-110490000D03*
D22*
X211455000Y-105410000D03*
D23*
X203835000Y-105410000D03*
D22*
X211455000Y-120650000D03*
D23*
X203835000Y-120650000D03*
D13*
X180340000Y-115570000D03*
D14*
X182880000Y-115570000D03*
X185420000Y-115570000D03*
X187960000Y-115570000D03*
D11*
X220980000Y-99695000D03*
D24*
X209550000Y-95250000D03*
D18*
X217170000Y-95250000D03*
D25*
X180340000Y-95885000D03*
D26*
X182340000Y-95885000D03*
D27*
X219710000Y-106205000D03*
D28*
X219710000Y-116205000D03*
D27*
X219710000Y-111205000D03*
X219710000Y-121445000D03*
D28*
X219710000Y-131445000D03*
D27*
X219710000Y-126445000D03*
D29*
X184785000Y-100330000D03*
D30*
X182245000Y-100330000D03*
D29*
X184785000Y-106045000D03*
D30*
X182245000Y-106045000D03*
D29*
X184785000Y-102870000D03*
D30*
X182245000Y-102870000D03*
D29*
X184785000Y-108585000D03*
D30*
X182245000Y-108585000D03*
D29*
X184785000Y-111760000D03*
D30*
X182245000Y-111760000D03*
M02*
